<svg width="417" height="277" viewBox="0 0 417 277" fill="none" xmlns="http://www.w3.org/2000/svg">
<g clip-path="url(#clip0_610_254)">
<rect x="0.75" width="415.5" height="277" rx="15.8286" fill="url(#paint0_linear_610_254)"/>
<path d="M68.4564 -3.44133L29.093 62.1589L10.2638 93.5369H-46.3296L-51.9119 84.2253L-91.1094 18.9244L-77.6815 -3.44133L-43.9759 -59.6102L-10.2854 -3.44133H68.4564Z" fill="url(#paint1_linear_610_254)"/>
<path d="M509.737 18.67V18.685L470.555 83.9708L464.806 93.5369H408.515L389.55 61.9344L350.322 -3.44127H428.777L462.619 -59.8347L496.46 -3.44127L509.737 18.67Z" fill="url(#paint2_linear_610_254)"/>
<path d="M269.569 95.2134L268.601 93.5367H147.903L209.234 195.755L234.777 238.33H283.691L259.234 279.08L225.498 335.309H192.985L159.249 279.08L134.792 238.33L47.903 93.5367L47.6465 93.1025L97.6466 9.77733L105.568 -3.44153H310.381L319.569 11.8882L368.558 93.5367L369.569 95.2134L319.569 178.524L269.569 95.2134Z" fill="url(#paint3_linear_610_254)"/>
<path d="M68.5264 195.724H74.4374C76.1636 195.724 77.6629 195.91 78.9352 196.281C80.2075 196.653 81.2597 197.186 82.0919 197.88C82.9309 198.568 83.5533 199.407 83.9591 200.398C84.3717 201.381 84.578 202.488 84.578 203.719C84.578 204.888 84.3752 205.972 83.9694 206.969C83.5636 207.959 82.9447 208.819 82.1125 209.548C81.2804 210.27 80.2281 210.837 78.9558 211.25C77.6835 211.656 76.1843 211.859 74.4581 211.859L68.5264 211.848V195.724ZM75.2421 209.022C76.2187 209.022 77.0749 208.898 77.8108 208.65C78.5466 208.396 79.1587 208.038 79.647 207.577C80.1422 207.117 80.5135 206.56 80.7611 205.906C81.0087 205.253 81.1325 204.524 81.1325 203.719C81.1325 202.928 81.0087 202.217 80.7611 201.584C80.5135 200.944 80.1422 200.404 79.647 199.964C79.1587 199.517 78.5466 199.173 77.8108 198.933C77.0749 198.692 76.2187 198.572 75.2421 198.572H71.7965V209.022H75.2421ZM88.9248 195.724H92.2156V211.848H88.9248V195.724ZM96.7686 203.637C96.7686 202.502 96.9818 201.443 97.4082 200.459C97.8346 199.469 98.457 198.609 99.2754 197.88C100.094 197.151 101.098 196.577 102.288 196.158C103.484 195.738 104.853 195.528 106.393 195.528C106.951 195.528 107.508 195.559 108.065 195.621C108.629 195.676 109.182 195.766 109.726 195.889C110.276 196.013 110.809 196.171 111.324 196.364C111.847 196.55 112.342 196.773 112.81 197.035L111.304 199.51C111.022 199.345 110.702 199.197 110.344 199.067C109.987 198.929 109.602 198.816 109.189 198.726C108.783 198.63 108.36 198.558 107.92 198.51C107.487 198.462 107.05 198.437 106.61 198.437C105.592 198.437 104.684 198.568 103.887 198.83C103.089 199.084 102.415 199.445 101.865 199.913C101.315 200.373 100.895 200.927 100.606 201.574C100.317 202.22 100.173 202.928 100.173 203.699C100.173 204.496 100.324 205.229 100.627 205.896C100.929 206.563 101.359 207.137 101.916 207.619C102.473 208.1 103.147 208.478 103.938 208.753C104.729 209.022 105.613 209.156 106.589 209.156C107.367 209.156 108.078 209.07 108.725 208.898C109.371 208.719 109.935 208.468 110.417 208.145C110.898 207.822 111.29 207.433 111.593 206.979C111.895 206.518 112.095 206.003 112.191 205.432H106.558V202.739H115.131V202.75L115.141 202.739C115.313 203.565 115.365 204.369 115.296 205.153C115.234 205.93 115.055 206.666 114.76 207.361C114.471 208.049 114.072 208.681 113.563 209.259C113.054 209.837 112.445 210.335 111.737 210.755C111.029 211.167 110.224 211.491 109.323 211.724C108.422 211.951 107.435 212.065 106.362 212.065C104.863 212.065 103.519 211.845 102.329 211.405C101.146 210.965 100.142 210.363 99.3167 209.599C98.4914 208.836 97.8587 207.942 97.4185 206.917C96.9853 205.893 96.7686 204.799 96.7686 203.637ZM120.066 195.724H123.357V211.848H120.066V195.724ZM133.872 198.592H127.92V195.724H143.095V198.592H137.142V211.848H133.872V198.592ZM153.569 195.724H157.035L164.834 211.848H161.399L160.11 209.135H150.691L149.443 211.848H145.997L153.569 195.724ZM158.82 206.443L155.333 199.118L151.939 206.443H158.82ZM168.82 195.724H172.09V208.98H181.467V211.848H168.82V195.724ZM193.514 203.637C193.514 202.502 193.727 201.443 194.153 200.459C194.579 199.469 195.202 198.609 196.02 197.88C196.839 197.151 197.843 196.577 199.033 196.158C200.229 195.738 201.598 195.528 203.138 195.528C203.695 195.528 204.252 195.559 204.81 195.621C205.373 195.676 205.927 195.766 206.47 195.889C207.021 196.013 207.554 196.171 208.069 196.364C208.592 196.55 209.087 196.773 209.555 197.035L208.049 199.51C207.767 199.345 207.447 199.197 207.089 199.067C206.732 198.929 206.347 198.816 205.934 198.726C205.528 198.63 205.105 198.558 204.665 198.51C204.232 198.462 203.795 198.437 203.355 198.437C202.337 198.437 201.429 198.568 200.632 198.83C199.834 199.084 199.16 199.445 198.61 199.913C198.059 200.373 197.64 200.927 197.351 201.574C197.062 202.22 196.918 202.928 196.918 203.699C196.918 204.496 197.069 205.229 197.372 205.896C197.674 206.563 198.104 207.137 198.661 207.619C199.218 208.1 199.892 208.478 200.683 208.753C201.474 209.022 202.358 209.156 203.334 209.156C204.111 209.156 204.823 209.07 205.47 208.898C206.116 208.719 206.68 208.468 207.162 208.145C207.643 207.822 208.035 207.433 208.338 206.979C208.64 206.518 208.84 206.003 208.936 205.432H203.303V202.739H211.876V202.75L211.886 202.739C212.058 203.565 212.11 204.369 212.041 205.153C211.979 205.93 211.8 206.666 211.505 207.361C211.216 208.049 210.817 208.681 210.308 209.259C209.799 209.837 209.19 210.335 208.482 210.755C207.774 211.167 206.969 211.491 206.068 211.724C205.167 211.951 204.18 212.065 203.107 212.065C201.608 212.065 200.264 211.845 199.074 211.405C197.891 210.965 196.887 210.363 196.062 209.599C195.236 208.836 194.604 207.942 194.163 206.917C193.73 205.893 193.514 204.799 193.514 203.637ZM216.811 195.724H220.102V211.848H216.811V195.724ZM225.758 195.724H240.18V198.592H229.029V202.811H238.499V205.504H229.029V211.848H225.758V195.724ZM249.675 198.592H243.722V195.724H258.897V198.592H252.945V211.848H249.675V198.592ZM271.387 203.688C271.387 202.54 271.603 201.47 272.037 200.48C272.47 199.483 273.096 198.62 273.914 197.891C274.739 197.155 275.744 196.577 276.926 196.158C278.116 195.738 279.461 195.528 280.96 195.528C282.274 195.528 283.477 195.663 284.571 195.931C285.671 196.192 286.692 196.594 287.634 197.138L286.128 199.614C285.846 199.428 285.52 199.263 285.148 199.118C284.784 198.974 284.392 198.854 283.972 198.757C283.56 198.654 283.13 198.575 282.683 198.52C282.243 198.465 281.806 198.437 281.373 198.437C280.327 198.437 279.395 198.568 278.577 198.83C277.759 199.084 277.067 199.445 276.503 199.913C275.946 200.373 275.52 200.927 275.224 201.574C274.935 202.213 274.791 202.918 274.791 203.688C274.791 204.486 274.942 205.219 275.245 205.886C275.548 206.553 275.984 207.13 276.555 207.619C277.133 208.1 277.834 208.478 278.66 208.753C279.492 209.022 280.43 209.156 281.476 209.156C281.95 209.156 282.421 209.121 282.889 209.053C283.357 208.984 283.807 208.891 284.24 208.774C284.681 208.65 285.104 208.506 285.509 208.341C285.915 208.169 286.293 207.983 286.644 207.784L288.15 210.26C287.27 210.824 286.252 211.267 285.097 211.59C283.941 211.907 282.714 212.065 281.414 212.065C279.756 212.065 278.302 211.852 277.05 211.425C275.799 210.992 274.753 210.401 273.914 209.651C273.075 208.894 272.442 208.007 272.016 206.989C271.597 205.965 271.387 204.864 271.387 203.688ZM298.738 195.724H302.204L310.003 211.848H306.568L305.278 209.135H295.86L294.612 211.848H291.166L298.738 195.724ZM303.989 206.443L300.502 199.118L297.108 206.443H303.989ZM313.989 195.724H322.19C323.428 195.724 324.501 195.855 325.409 196.116C326.316 196.371 327.07 196.742 327.668 197.231C328.266 197.719 328.71 198.314 328.999 199.015C329.294 199.717 329.442 200.511 329.442 201.398C329.442 201.997 329.37 202.567 329.226 203.111C329.081 203.647 328.858 204.142 328.555 204.596C328.259 205.05 327.884 205.456 327.431 205.813C326.977 206.164 326.444 206.456 325.832 206.69L329.339 211.848H325.336L322.304 207.268H322.211L317.259 207.258V211.848H313.989V195.724ZM322.273 204.431C322.892 204.431 323.431 204.359 323.892 204.214C324.36 204.07 324.748 203.867 325.058 203.606C325.374 203.344 325.608 203.028 325.759 202.657C325.918 202.278 325.997 201.859 325.997 201.398C325.997 200.497 325.687 199.803 325.068 199.314C324.449 198.819 323.517 198.572 322.273 198.572H317.259V204.431H322.273ZM334.8 195.724H340.711C342.437 195.724 343.936 195.91 345.209 196.281C346.481 196.653 347.533 197.186 348.365 197.88C349.204 198.568 349.827 199.407 350.233 200.398C350.645 201.381 350.852 202.488 350.852 203.719C350.852 204.888 350.649 205.972 350.243 206.969C349.837 207.959 349.218 208.819 348.386 209.548C347.554 210.27 346.502 210.837 345.229 211.25C343.957 211.656 342.458 211.859 340.732 211.859L334.8 211.848V195.724ZM341.516 209.022C342.492 209.022 343.348 208.898 344.084 208.65C344.82 208.396 345.432 208.038 345.921 207.577C346.416 207.117 346.787 206.56 347.035 205.906C347.282 205.253 347.406 204.524 347.406 203.719C347.406 202.928 347.282 202.217 347.035 201.584C346.787 200.944 346.416 200.404 345.921 199.964C345.432 199.517 344.82 199.173 344.084 198.933C343.348 198.692 342.492 198.572 341.516 198.572H338.07V209.022H341.516Z" fill="white"/>
<path d="M68.5264 195.724H74.4374C76.1636 195.724 77.6629 195.91 78.9352 196.281C80.2075 196.653 81.2597 197.186 82.0919 197.88C82.9309 198.568 83.5533 199.407 83.9591 200.398C84.3717 201.381 84.578 202.488 84.578 203.719C84.578 204.888 84.3752 205.972 83.9694 206.969C83.5636 207.959 82.9447 208.819 82.1125 209.548C81.2804 210.27 80.2281 210.837 78.9558 211.25C77.6835 211.656 76.1843 211.859 74.4581 211.859L68.5264 211.848V195.724ZM75.2421 209.022C76.2187 209.022 77.0749 208.898 77.8108 208.65C78.5466 208.396 79.1587 208.038 79.647 207.577C80.1422 207.117 80.5135 206.56 80.7611 205.906C81.0087 205.253 81.1325 204.524 81.1325 203.719C81.1325 202.928 81.0087 202.217 80.7611 201.584C80.5135 200.944 80.1422 200.404 79.647 199.964C79.1587 199.517 78.5466 199.173 77.8108 198.933C77.0749 198.692 76.2187 198.572 75.2421 198.572H71.7965V209.022H75.2421ZM88.9248 195.724H92.2156V211.848H88.9248V195.724ZM96.7686 203.637C96.7686 202.502 96.9818 201.443 97.4082 200.459C97.8346 199.469 98.457 198.609 99.2754 197.88C100.094 197.151 101.098 196.577 102.288 196.158C103.484 195.738 104.853 195.528 106.393 195.528C106.951 195.528 107.508 195.559 108.065 195.621C108.629 195.676 109.182 195.766 109.726 195.889C110.276 196.013 110.809 196.171 111.324 196.364C111.847 196.55 112.342 196.773 112.81 197.035L111.304 199.51C111.022 199.345 110.702 199.197 110.344 199.067C109.987 198.929 109.602 198.816 109.189 198.726C108.783 198.63 108.36 198.558 107.92 198.51C107.487 198.462 107.05 198.437 106.61 198.437C105.592 198.437 104.684 198.568 103.887 198.83C103.089 199.084 102.415 199.445 101.865 199.913C101.315 200.373 100.895 200.927 100.606 201.574C100.317 202.22 100.173 202.928 100.173 203.699C100.173 204.496 100.324 205.229 100.627 205.896C100.929 206.563 101.359 207.137 101.916 207.619C102.473 208.1 103.147 208.478 103.938 208.753C104.729 209.022 105.613 209.156 106.589 209.156C107.367 209.156 108.078 209.07 108.725 208.898C109.371 208.719 109.935 208.468 110.417 208.145C110.898 207.822 111.29 207.433 111.593 206.979C111.895 206.518 112.095 206.003 112.191 205.432H106.558V202.739H115.131V202.75L115.141 202.739C115.313 203.565 115.365 204.369 115.296 205.153C115.234 205.93 115.055 206.666 114.76 207.361C114.471 208.049 114.072 208.681 113.563 209.259C113.054 209.837 112.445 210.335 111.737 210.755C111.029 211.167 110.224 211.491 109.323 211.724C108.422 211.951 107.435 212.065 106.362 212.065C104.863 212.065 103.519 211.845 102.329 211.405C101.146 210.965 100.142 210.363 99.3167 209.599C98.4914 208.836 97.8587 207.942 97.4185 206.917C96.9853 205.893 96.7686 204.799 96.7686 203.637ZM120.066 195.724H123.357V211.848H120.066V195.724ZM133.872 198.592H127.92V195.724H143.095V198.592H137.142V211.848H133.872V198.592ZM153.569 195.724H157.035L164.834 211.848H161.399L160.11 209.135H150.691L149.443 211.848H145.997L153.569 195.724ZM158.82 206.443L155.333 199.118L151.939 206.443H158.82ZM168.82 195.724H172.09V208.98H181.467V211.848H168.82V195.724ZM193.514 203.637C193.514 202.502 193.727 201.443 194.153 200.459C194.579 199.469 195.202 198.609 196.02 197.88C196.839 197.151 197.843 196.577 199.033 196.158C200.229 195.738 201.598 195.528 203.138 195.528C203.695 195.528 204.252 195.559 204.81 195.621C205.373 195.676 205.927 195.766 206.47 195.889C207.021 196.013 207.554 196.171 208.069 196.364C208.592 196.55 209.087 196.773 209.555 197.035L208.049 199.51C207.767 199.345 207.447 199.197 207.089 199.067C206.732 198.929 206.347 198.816 205.934 198.726C205.528 198.63 205.105 198.558 204.665 198.51C204.232 198.462 203.795 198.437 203.355 198.437C202.337 198.437 201.429 198.568 200.632 198.83C199.834 199.084 199.16 199.445 198.61 199.913C198.059 200.373 197.64 200.927 197.351 201.574C197.062 202.22 196.918 202.928 196.918 203.699C196.918 204.496 197.069 205.229 197.372 205.896C197.674 206.563 198.104 207.137 198.661 207.619C199.218 208.1 199.892 208.478 200.683 208.753C201.474 209.022 202.358 209.156 203.334 209.156C204.111 209.156 204.823 209.07 205.47 208.898C206.116 208.719 206.68 208.468 207.162 208.145C207.643 207.822 208.035 207.433 208.338 206.979C208.64 206.518 208.84 206.003 208.936 205.432H203.303V202.739H211.876V202.75L211.886 202.739C212.058 203.565 212.11 204.369 212.041 205.153C211.979 205.93 211.8 206.666 211.505 207.361C211.216 208.049 210.817 208.681 210.308 209.259C209.799 209.837 209.19 210.335 208.482 210.755C207.774 211.167 206.969 211.491 206.068 211.724C205.167 211.951 204.18 212.065 203.107 212.065C201.608 212.065 200.264 211.845 199.074 211.405C197.891 210.965 196.887 210.363 196.062 209.599C195.236 208.836 194.604 207.942 194.163 206.917C193.73 205.893 193.514 204.799 193.514 203.637ZM216.811 195.724H220.102V211.848H216.811V195.724ZM225.758 195.724H240.18V198.592H229.029V202.811H238.499V205.504H229.029V211.848H225.758V195.724ZM249.675 198.592H243.722V195.724H258.897V198.592H252.945V211.848H249.675V198.592ZM271.387 203.688C271.387 202.54 271.603 201.47 272.037 200.48C272.47 199.483 273.096 198.62 273.914 197.891C274.739 197.155 275.744 196.577 276.926 196.158C278.116 195.738 279.461 195.528 280.96 195.528C282.274 195.528 283.477 195.663 284.571 195.931C285.671 196.192 286.692 196.594 287.634 197.138L286.128 199.614C285.846 199.428 285.52 199.263 285.148 199.118C284.784 198.974 284.392 198.854 283.972 198.757C283.56 198.654 283.13 198.575 282.683 198.52C282.243 198.465 281.806 198.437 281.373 198.437C280.327 198.437 279.395 198.568 278.577 198.83C277.759 199.084 277.067 199.445 276.503 199.913C275.946 200.373 275.52 200.927 275.224 201.574C274.935 202.213 274.791 202.918 274.791 203.688C274.791 204.486 274.942 205.219 275.245 205.886C275.548 206.553 275.984 207.13 276.555 207.619C277.133 208.1 277.834 208.478 278.66 208.753C279.492 209.022 280.43 209.156 281.476 209.156C281.95 209.156 282.421 209.121 282.889 209.053C283.357 208.984 283.807 208.891 284.24 208.774C284.681 208.65 285.104 208.506 285.509 208.341C285.915 208.169 286.293 207.983 286.644 207.784L288.15 210.26C287.27 210.824 286.252 211.267 285.097 211.59C283.941 211.907 282.714 212.065 281.414 212.065C279.756 212.065 278.302 211.852 277.05 211.425C275.799 210.992 274.753 210.401 273.914 209.651C273.075 208.894 272.442 208.007 272.016 206.989C271.597 205.965 271.387 204.864 271.387 203.688ZM298.738 195.724H302.204L310.003 211.848H306.568L305.278 209.135H295.86L294.612 211.848H291.166L298.738 195.724ZM303.989 206.443L300.502 199.118L297.108 206.443H303.989ZM313.989 195.724H322.19C323.428 195.724 324.501 195.855 325.409 196.116C326.316 196.371 327.07 196.742 327.668 197.231C328.266 197.719 328.71 198.314 328.999 199.015C329.294 199.717 329.442 200.511 329.442 201.398C329.442 201.997 329.37 202.567 329.226 203.111C329.081 203.647 328.858 204.142 328.555 204.596C328.259 205.05 327.884 205.456 327.431 205.813C326.977 206.164 326.444 206.456 325.832 206.69L329.339 211.848H325.336L322.304 207.268H322.211L317.259 207.258V211.848H313.989V195.724ZM322.273 204.431C322.892 204.431 323.431 204.359 323.892 204.214C324.36 204.07 324.748 203.867 325.058 203.606C325.374 203.344 325.608 203.028 325.759 202.657C325.918 202.278 325.997 201.859 325.997 201.398C325.997 200.497 325.687 199.803 325.068 199.314C324.449 198.819 323.517 198.572 322.273 198.572H317.259V204.431H322.273ZM334.8 195.724H340.711C342.437 195.724 343.936 195.91 345.209 196.281C346.481 196.653 347.533 197.186 348.365 197.88C349.204 198.568 349.827 199.407 350.233 200.398C350.645 201.381 350.852 202.488 350.852 203.719C350.852 204.888 350.649 205.972 350.243 206.969C349.837 207.959 349.218 208.819 348.386 209.548C347.554 210.27 346.502 210.837 345.229 211.25C343.957 211.656 342.458 211.859 340.732 211.859L334.8 211.848V195.724ZM341.516 209.022C342.492 209.022 343.348 208.898 344.084 208.65C344.82 208.396 345.432 208.038 345.921 207.577C346.416 207.117 346.787 206.56 347.035 205.906C347.282 205.253 347.406 204.524 347.406 203.719C347.406 202.928 347.282 202.217 347.035 201.584C346.787 200.944 346.416 200.404 345.921 199.964C345.432 199.517 344.82 199.173 344.084 198.933C343.348 198.692 342.492 198.572 341.516 198.572H338.07V209.022H341.516Z" fill="url(#paint4_linear_610_254)"/>
<path d="M68.5264 195.724V195.394H68.1963V195.724H68.5264ZM82.0919 197.88L81.8803 198.134L81.8826 198.136L82.0919 197.88ZM83.9591 200.398L83.6536 200.523L83.6547 200.525L83.9591 200.398ZM83.9694 206.969L84.2749 207.094L84.2752 207.093L83.9694 206.969ZM82.1125 209.548L82.3289 209.797L82.33 209.796L82.1125 209.548ZM78.9558 211.25L79.0561 211.564L79.0577 211.564L78.9558 211.25ZM74.4581 211.859L74.4575 212.189H74.4581V211.859ZM68.5264 211.848H68.1963V212.178L68.5258 212.178L68.5264 211.848ZM77.8108 208.65L77.916 208.963L77.9186 208.962L77.8108 208.65ZM79.647 207.577L79.4221 207.336L79.4204 207.337L79.647 207.577ZM80.7611 201.584L80.4533 201.703L80.4537 201.704L80.7611 201.584ZM79.647 199.964L79.4241 200.208L79.4277 200.211L79.647 199.964ZM71.7965 198.572V198.241H71.4664V198.572H71.7965ZM71.7965 209.022H71.4664V209.352H71.7965V209.022ZM68.5264 196.055H74.4374V195.394H68.5264V196.055ZM74.4374 196.055C76.1412 196.055 77.6079 196.238 78.8427 196.598L79.0277 195.965C77.7179 195.582 76.1861 195.394 74.4374 195.394V196.055ZM78.8427 196.598C80.0809 196.96 81.0899 197.474 81.8804 198.134L82.3034 197.627C81.4295 196.898 80.3342 196.346 79.0277 195.965L78.8427 196.598ZM81.8826 198.136C82.6799 198.789 83.2689 199.584 83.6536 200.523L84.2645 200.272C83.8377 199.231 83.182 198.347 82.3012 197.625L81.8826 198.136ZM83.6547 200.525C84.0479 201.463 84.2479 202.525 84.2479 203.719H84.9082C84.9082 202.451 84.6955 201.299 84.2635 200.27L83.6547 200.525ZM84.2479 203.719C84.2479 204.849 84.052 205.89 83.6636 206.844L84.2752 207.093C84.6983 206.053 84.9082 204.927 84.9082 203.719H84.2479ZM83.6639 206.844C83.2782 207.785 82.69 208.603 81.895 209.299L82.33 209.796C83.1993 209.035 83.8491 208.133 84.2749 207.094L83.6639 206.844ZM81.8962 209.298C81.1038 209.986 80.093 210.534 78.854 210.936L79.0577 211.564C80.3633 211.141 81.4569 210.554 82.3289 209.797L81.8962 209.298ZM78.8555 210.935C77.6235 211.328 76.1596 211.528 74.4581 211.528V212.189C76.2089 212.189 77.7435 211.983 79.0561 211.564L78.8555 210.935ZM74.4586 211.528L68.527 211.518L68.5258 212.178L74.4575 212.189L74.4586 211.528ZM68.8565 211.848V195.724H68.1963V211.848H68.8565ZM75.2421 209.352C76.2456 209.352 77.1388 209.225 77.916 208.963L77.7055 208.337C77.011 208.571 76.1917 208.692 75.2421 208.692V209.352ZM77.9186 208.962C78.6917 208.695 79.3462 208.315 79.8736 207.818L79.4204 207.337C78.9712 207.761 78.4016 208.097 77.7029 208.338L77.9186 208.962ZM79.8719 207.819C80.4054 207.323 80.8049 206.722 81.0698 206.023L80.4524 205.789C80.2222 206.397 79.8789 206.911 79.4221 207.336L79.8719 207.819ZM81.0698 206.023C81.3335 205.327 81.4626 204.558 81.4626 203.719H80.8024C80.8024 204.49 80.6839 205.179 80.4524 205.789L81.0698 206.023ZM81.4626 203.719C81.4626 202.894 81.3334 202.14 81.0685 201.464L80.4537 201.704C80.6841 202.293 80.8024 202.963 80.8024 203.719H81.4626ZM81.069 201.465C80.8031 200.778 80.4021 200.194 79.8663 199.718L79.4277 200.211C79.8822 200.615 80.224 201.111 80.4533 201.703L81.069 201.465ZM79.8699 199.721C79.3416 199.237 78.6864 198.872 77.9134 198.619L77.7081 199.246C78.4069 199.475 78.9758 199.797 79.4241 200.208L79.8699 199.721ZM77.9134 198.619C77.137 198.365 76.2448 198.241 75.2421 198.241V198.902C76.1925 198.902 77.0127 199.019 77.7081 199.246L77.9134 198.619ZM75.2421 198.241H71.7965V198.902H75.2421V198.241ZM71.4664 198.572V209.022H72.1267V198.572H71.4664ZM71.7965 209.352H75.2421V208.692H71.7965V209.352ZM88.9248 195.724V195.394H88.5947V195.724H88.9248ZM92.2156 195.724H92.5457V195.394H92.2156V195.724ZM92.2156 211.848V212.178H92.5457V211.848H92.2156ZM88.9248 211.848H88.5947V212.178H88.9248V211.848ZM88.9248 196.055H92.2156V195.394H88.9248V196.055ZM91.8855 195.724V211.848H92.5457V195.724H91.8855ZM92.2156 211.518H88.9248V212.178H92.2156V211.518ZM89.2549 211.848V195.724H88.5947V211.848H89.2549ZM97.4082 200.459L97.7111 200.591L97.7114 200.59L97.4082 200.459ZM102.288 196.158L102.178 195.846L102.178 195.846L102.288 196.158ZM108.065 195.621L108.028 195.949L108.033 195.95L108.065 195.621ZM109.726 195.889L109.652 196.211L109.653 196.212L109.726 195.889ZM111.324 196.364L111.209 196.673L111.214 196.675L111.324 196.364ZM112.81 197.035L113.092 197.206L113.27 196.913L112.971 196.746L112.81 197.035ZM111.304 199.51L111.137 199.795L111.417 199.959L111.586 199.682L111.304 199.51ZM110.344 199.067L110.226 199.375L110.231 199.377L110.344 199.067ZM109.189 198.726L109.113 199.048L109.119 199.049L109.189 198.726ZM107.92 198.51L107.884 198.838L107.884 198.838L107.92 198.51ZM103.887 198.83L103.987 199.144L103.989 199.143L103.887 198.83ZM101.865 199.913L102.077 200.166L102.079 200.164L101.865 199.913ZM100.606 201.574L100.908 201.708L100.606 201.574ZM100.627 205.896L100.326 206.032L100.627 205.896ZM101.916 207.619L101.7 207.868L101.916 207.619ZM103.938 208.753L103.83 209.065L103.832 209.066L103.938 208.753ZM108.725 208.898L108.81 209.217L108.813 209.216L108.725 208.898ZM110.417 208.145L110.233 207.871L110.417 208.145ZM111.593 206.979L111.867 207.162L111.869 207.16L111.593 206.979ZM112.191 205.432L112.517 205.487L112.581 205.102H112.191V205.432ZM106.558 205.432H106.228V205.762H106.558V205.432ZM106.558 202.739V202.409H106.228V202.739H106.558ZM115.131 202.739H115.461V202.409H115.131V202.739ZM115.131 202.75H114.801V203.547L115.364 202.983L115.131 202.75ZM115.141 202.739L115.465 202.672L115.34 202.074L114.908 202.506L115.141 202.739ZM115.296 205.153L114.967 205.124L114.967 205.127L115.296 205.153ZM114.76 207.361L114.456 207.232L114.455 207.233L114.76 207.361ZM111.737 210.755L111.903 211.04L111.905 211.039L111.737 210.755ZM109.323 211.724L109.404 212.045L109.406 212.044L109.323 211.724ZM102.329 211.405L102.214 211.714L102.214 211.714L102.329 211.405ZM97.4185 206.917L97.1145 207.046L97.1152 207.048L97.4185 206.917ZM97.0987 203.637C97.0987 202.544 97.3037 201.53 97.7111 200.591L97.1054 200.328C96.66 201.355 96.4385 202.46 96.4385 203.637H97.0987ZM97.7114 200.59C98.1184 199.645 98.712 198.824 99.495 198.127L99.0558 197.634C98.202 198.394 97.5508 199.294 97.105 200.329L97.7114 200.59ZM99.495 198.127C100.277 197.43 101.242 196.876 102.397 196.469L102.178 195.846C100.954 196.278 99.9108 196.872 99.0558 197.634L99.495 198.127ZM102.397 196.469C103.552 196.064 104.882 195.859 106.393 195.859V195.198C104.823 195.198 103.417 195.412 102.178 195.846L102.397 196.469ZM106.393 195.859C106.938 195.859 107.483 195.889 108.028 195.949L108.101 195.293C107.532 195.23 106.963 195.198 106.393 195.198V195.859ZM108.033 195.95C108.583 196.003 109.123 196.091 109.652 196.211L109.799 195.568C109.242 195.441 108.674 195.349 108.097 195.293L108.033 195.95ZM109.653 196.212C110.189 196.332 110.708 196.486 111.209 196.673L111.44 196.055C110.91 195.857 110.362 195.694 109.798 195.567L109.653 196.212ZM111.214 196.675C111.72 196.855 112.198 197.071 112.649 197.323L112.971 196.746C112.487 196.476 111.975 196.245 111.435 196.053L111.214 196.675ZM112.528 196.863L111.022 199.339L111.586 199.682L113.092 197.206L112.528 196.863ZM111.471 199.225C111.169 199.049 110.831 198.893 110.458 198.757L110.231 199.377C110.573 199.502 110.875 199.642 111.137 199.795L111.471 199.225ZM110.463 198.759C110.088 198.614 109.687 198.496 109.259 198.404L109.119 199.049C109.517 199.135 109.886 199.244 110.226 199.375L110.463 198.759ZM109.265 198.405C108.845 198.306 108.409 198.231 107.956 198.182L107.884 198.838C108.312 198.885 108.721 198.955 109.113 199.048L109.265 198.405ZM107.957 198.182C107.511 198.132 107.062 198.107 106.61 198.107V198.768C107.038 198.768 107.463 198.791 107.884 198.838L107.957 198.182ZM106.61 198.107C105.564 198.107 104.621 198.242 103.784 198.516L103.989 199.143C104.748 198.895 105.62 198.768 106.61 198.768V198.107ZM103.786 198.515C102.954 198.781 102.239 199.161 101.651 199.661L102.079 200.164C102.591 199.729 103.224 199.387 103.987 199.144L103.786 198.515ZM101.653 199.66C101.065 200.152 100.614 200.746 100.305 201.439L100.908 201.708C101.176 201.108 101.564 200.595 102.077 200.166L101.653 199.66ZM100.305 201.439C99.9954 202.131 99.8428 202.886 99.8428 203.699H100.503C100.503 202.971 100.639 202.309 100.908 201.708L100.305 201.439ZM99.8428 203.699C99.8428 204.539 100.002 205.319 100.326 206.032L100.927 205.76C100.646 205.139 100.503 204.454 100.503 203.699H99.8428ZM100.326 206.032C100.649 206.743 101.107 207.356 101.7 207.868L102.132 207.369C101.611 206.919 101.21 206.383 100.927 205.76L100.326 206.032ZM101.7 207.868C102.293 208.381 103.005 208.778 103.83 209.065L104.047 208.442C103.29 208.178 102.654 207.82 102.132 207.369L101.7 207.868ZM103.832 209.066C104.662 209.348 105.583 209.486 106.589 209.486V208.826C105.643 208.826 104.796 208.696 104.044 208.441L103.832 209.066ZM106.589 209.486C107.391 209.486 108.132 209.397 108.81 209.217L108.64 208.579C108.025 208.742 107.342 208.826 106.589 208.826V209.486ZM108.813 209.216C109.488 209.029 110.086 208.765 110.601 208.419L110.233 207.871C109.785 208.171 109.254 208.409 108.637 208.58L108.813 209.216ZM110.601 208.419C111.116 208.073 111.539 207.654 111.867 207.162L111.318 206.796C111.041 207.212 110.68 207.57 110.233 207.871L110.601 208.419ZM111.869 207.16C112.198 206.659 112.413 206.1 112.517 205.487L111.866 205.377C111.776 205.905 111.593 206.377 111.317 206.798L111.869 207.16ZM112.191 205.102H106.558V205.762H112.191V205.102ZM106.889 205.432V202.739H106.228V205.432H106.889ZM106.558 203.069H115.131V202.409H106.558V203.069ZM114.801 202.739V202.75H115.461V202.739H114.801ZM115.364 202.983L115.375 202.973L114.908 202.506L114.898 202.516L115.364 202.983ZM114.818 202.807C114.984 203.603 115.033 204.375 114.967 205.124L115.625 205.182C115.697 204.364 115.643 203.527 115.465 202.672L114.818 202.807ZM114.967 205.127C114.908 205.87 114.737 206.571 114.456 207.232L115.063 207.49C115.374 206.762 115.561 205.991 115.625 205.179L114.967 205.127ZM114.455 207.233C114.181 207.887 113.801 208.489 113.315 209.041L113.811 209.477C114.343 208.873 114.761 208.21 115.064 207.489L114.455 207.233ZM113.315 209.041C112.831 209.591 112.25 210.068 111.569 210.471L111.905 211.039C112.641 210.603 113.277 210.083 113.811 209.477L113.315 209.041ZM111.571 210.47C110.892 210.865 110.116 211.178 109.24 211.405L109.406 212.044C110.332 211.804 111.166 211.47 111.903 211.04L111.571 210.47ZM109.243 211.404C108.372 211.624 107.412 211.735 106.362 211.735V212.395C107.458 212.395 108.473 212.279 109.404 212.045L109.243 211.404ZM106.362 211.735C104.895 211.735 103.591 211.519 102.443 211.095L102.214 211.714C103.447 212.17 104.831 212.395 106.362 212.395V211.735ZM102.444 211.095C101.297 210.668 100.331 210.088 99.5408 209.357L99.0925 209.842C99.9531 210.638 100.995 211.261 102.214 211.714L102.444 211.095ZM99.5408 209.357C98.7492 208.625 98.1436 207.769 97.7219 206.787L97.1152 207.048C97.5738 208.115 98.2336 209.047 99.0925 209.842L99.5408 209.357ZM97.7226 206.789C97.3073 205.806 97.0987 204.757 97.0987 203.637H96.4385C96.4385 204.841 96.6633 205.979 97.1145 207.046L97.7226 206.789ZM120.066 195.724V195.394H119.736V195.724H120.066ZM123.357 195.724H123.687V195.394H123.357V195.724ZM123.357 211.848V212.178H123.687V211.848H123.357ZM120.066 211.848H119.736V212.178H120.066V211.848ZM120.066 196.055H123.357V195.394H120.066V196.055ZM123.027 195.724V211.848H123.687V195.724H123.027ZM123.357 211.518H120.066V212.178H123.357V211.518ZM120.396 211.848V195.724H119.736V211.848H120.396ZM133.872 198.592H134.202V198.262H133.872V198.592ZM127.92 198.592H127.59V198.922H127.92V198.592ZM127.92 195.724V195.394H127.59V195.724H127.92ZM143.095 195.724H143.425V195.394H143.095V195.724ZM143.095 198.592V198.922H143.425V198.592H143.095ZM137.142 198.592V198.262H136.812V198.592H137.142ZM137.142 211.848V212.178H137.473V211.848H137.142ZM133.872 211.848H133.542V212.178H133.872V211.848ZM133.872 198.262H127.92V198.922H133.872V198.262ZM128.25 198.592V195.724H127.59V198.592H128.25ZM127.92 196.055H143.095V195.394H127.92V196.055ZM142.765 195.724V198.592H143.425V195.724H142.765ZM143.095 198.262H137.142V198.922H143.095V198.262ZM136.812 198.592V211.848H137.473V198.592H136.812ZM137.142 211.518H133.872V212.178H137.142V211.518ZM134.202 211.848V198.592H133.542V211.848H134.202ZM153.569 195.724V195.394H153.36L153.27 195.584L153.569 195.724ZM157.035 195.724L157.333 195.581L157.242 195.394H157.035V195.724ZM164.834 211.848V212.178H165.361L165.131 211.705L164.834 211.848ZM161.399 211.848L161.101 211.99L161.19 212.178H161.399V211.848ZM160.11 209.135L160.408 208.993L160.318 208.805H160.11V209.135ZM150.691 209.135V208.805H150.48L150.391 208.997L150.691 209.135ZM149.443 211.848V212.178H149.654L149.743 211.986L149.443 211.848ZM145.997 211.848L145.698 211.708L145.478 212.178H145.997V211.848ZM158.82 206.443V206.773H159.343L159.118 206.301L158.82 206.443ZM155.333 199.118L155.631 198.976L155.329 198.342L155.034 198.98L155.333 199.118ZM151.939 206.443L151.64 206.304L151.423 206.773H151.939V206.443ZM153.569 196.055H157.035V195.394H153.569V196.055ZM156.738 195.868L164.537 211.992L165.131 211.705L157.333 195.581L156.738 195.868ZM164.834 211.518H161.399V212.178H164.834V211.518ZM161.697 211.707L160.408 208.993L159.811 209.277L161.101 211.99L161.697 211.707ZM160.11 208.805H150.691V209.465H160.11V208.805ZM150.391 208.997L149.143 211.71L149.743 211.986L150.991 209.273L150.391 208.997ZM149.443 211.518H145.997V212.178H149.443V211.518ZM146.296 211.989L153.868 195.865L153.27 195.584L145.698 211.708L146.296 211.989ZM159.118 206.301L155.631 198.976L155.035 199.26L158.522 206.585L159.118 206.301ZM155.034 198.98L151.64 206.304L152.239 206.581L155.633 199.257L155.034 198.98ZM151.939 206.773H158.82V206.113H151.939V206.773ZM168.82 195.724V195.394H168.49V195.724H168.82ZM172.09 195.724H172.42V195.394H172.09V195.724ZM172.09 208.98H171.76V209.311H172.09V208.98ZM181.467 208.98H181.797V208.65H181.467V208.98ZM181.467 211.848V212.178H181.797V211.848H181.467ZM168.82 211.848H168.49V212.178H168.82V211.848ZM168.82 196.055H172.09V195.394H168.82V196.055ZM171.76 195.724V208.98H172.42V195.724H171.76ZM172.09 209.311H181.467V208.65H172.09V209.311ZM181.137 208.98V211.848H181.797V208.98H181.137ZM181.467 211.518H168.82V212.178H181.467V211.518ZM169.15 211.848V195.724H168.49V211.848H169.15ZM194.153 200.459L194.456 200.591L194.456 200.59L194.153 200.459ZM199.033 196.158L198.923 195.846L198.923 195.846L199.033 196.158ZM204.81 195.621L204.773 195.949L204.777 195.95L204.81 195.621ZM206.47 195.889L206.397 196.211L206.398 196.212L206.47 195.889ZM208.069 196.364L207.954 196.673L207.959 196.675L208.069 196.364ZM209.555 197.035L209.837 197.206L210.015 196.913L209.716 196.746L209.555 197.035ZM208.049 199.51L207.882 199.795L208.162 199.959L208.331 199.682L208.049 199.51ZM207.089 199.067L206.971 199.375L206.976 199.377L207.089 199.067ZM205.934 198.726L205.858 199.048L205.864 199.049L205.934 198.726ZM204.665 198.51L204.629 198.838L204.629 198.838L204.665 198.51ZM200.632 198.83L200.732 199.144L200.734 199.143L200.632 198.83ZM198.61 199.913L198.822 200.166L198.823 200.164L198.61 199.913ZM197.351 201.574L197.652 201.708L197.351 201.574ZM197.372 205.896L197.071 206.032L197.372 205.896ZM198.661 207.619L198.445 207.868L198.661 207.619ZM200.683 208.753L200.575 209.065L200.577 209.066L200.683 208.753ZM205.47 208.898L205.555 209.217L205.558 209.216L205.47 208.898ZM207.162 208.145L206.978 207.871L207.162 208.145ZM208.338 206.979L208.612 207.162L208.613 207.16L208.338 206.979ZM208.936 205.432L209.261 205.487L209.326 205.102H208.936V205.432ZM203.303 205.432H202.973V205.762H203.303V205.432ZM203.303 202.739V202.409H202.973V202.739H203.303ZM211.876 202.739H212.206V202.409H211.876V202.739ZM211.876 202.75H211.546V203.547L212.109 202.983L211.876 202.75ZM211.886 202.739L212.209 202.672L212.085 202.074L211.653 202.506L211.886 202.739ZM212.041 205.153L211.712 205.124L211.712 205.127L212.041 205.153ZM211.505 207.361L211.201 207.232L211.2 207.233L211.505 207.361ZM208.482 210.755L208.648 211.04L208.65 211.039L208.482 210.755ZM206.068 211.724L206.149 212.045L206.151 212.044L206.068 211.724ZM199.074 211.405L198.959 211.714L198.959 211.714L199.074 211.405ZM194.163 206.917L193.859 207.046L193.86 207.048L194.163 206.917ZM193.844 203.637C193.844 202.544 194.049 201.53 194.456 200.591L193.85 200.328C193.405 201.355 193.183 202.46 193.183 203.637H193.844ZM194.456 200.59C194.863 199.645 195.457 198.824 196.24 198.127L195.801 197.634C194.947 198.394 194.296 199.294 193.85 200.329L194.456 200.59ZM196.24 198.127C197.022 197.43 197.987 196.876 199.142 196.469L198.923 195.846C197.699 196.278 196.656 196.872 195.801 197.634L196.24 198.127ZM199.142 196.469C200.297 196.064 201.627 195.859 203.138 195.859V195.198C201.568 195.198 200.162 195.412 198.923 195.846L199.142 196.469ZM203.138 195.859C203.683 195.859 204.228 195.889 204.773 195.949L204.846 195.293C204.277 195.23 203.708 195.198 203.138 195.198V195.859ZM204.777 195.95C205.328 196.003 205.868 196.091 206.397 196.211L206.544 195.568C205.987 195.441 205.419 195.349 204.842 195.293L204.777 195.95ZM206.398 196.212C206.934 196.332 207.452 196.486 207.954 196.673L208.185 196.055C207.655 195.857 207.107 195.694 206.543 195.567L206.398 196.212ZM207.959 196.675C208.465 196.855 208.943 197.071 209.394 197.323L209.716 196.746C209.232 196.476 208.719 196.245 208.18 196.053L207.959 196.675ZM209.273 196.863L207.767 199.339L208.331 199.682L209.837 197.206L209.273 196.863ZM208.215 199.225C207.914 199.049 207.576 198.893 207.203 198.757L206.976 199.377C207.318 199.502 207.62 199.642 207.882 199.795L208.215 199.225ZM207.208 198.759C206.833 198.614 206.431 198.496 206.004 198.404L205.864 199.049C206.262 199.135 206.631 199.244 206.971 199.375L207.208 198.759ZM206.01 198.405C205.59 198.306 205.154 198.231 204.701 198.182L204.629 198.838C205.057 198.885 205.466 198.955 205.858 199.048L206.01 198.405ZM204.702 198.182C204.256 198.132 203.807 198.107 203.355 198.107V198.768C203.783 198.768 204.208 198.791 204.629 198.838L204.702 198.182ZM203.355 198.107C202.309 198.107 201.366 198.242 200.529 198.516L200.734 199.143C201.493 198.895 202.365 198.768 203.355 198.768V198.107ZM200.531 198.515C199.698 198.781 198.984 199.161 198.396 199.661L198.823 200.164C199.335 199.729 199.969 199.387 200.732 199.144L200.531 198.515ZM198.398 199.66C197.81 200.152 197.359 200.746 197.05 201.439L197.652 201.708C197.921 201.108 198.309 200.595 198.822 200.166L198.398 199.66ZM197.05 201.439C196.74 202.131 196.588 202.886 196.588 203.699H197.248C197.248 202.971 197.384 202.309 197.652 201.708L197.05 201.439ZM196.588 203.699C196.588 204.539 196.747 205.319 197.071 206.032L197.672 205.76C197.391 205.139 197.248 204.454 197.248 203.699H196.588ZM197.071 206.032C197.393 206.743 197.852 207.356 198.445 207.868L198.877 207.369C198.356 206.919 197.955 206.383 197.672 205.76L197.071 206.032ZM198.445 207.868C199.038 208.381 199.75 208.778 200.575 209.065L200.792 208.442C200.035 208.178 199.398 207.82 198.877 207.369L198.445 207.868ZM200.577 209.066C201.407 209.348 202.328 209.486 203.334 209.486V208.826C202.388 208.826 201.541 208.696 200.789 208.441L200.577 209.066ZM203.334 209.486C204.136 209.486 204.876 209.397 205.555 209.217L205.385 208.579C204.77 208.742 204.087 208.826 203.334 208.826V209.486ZM205.558 209.216C206.233 209.029 206.831 208.765 207.346 208.419L206.978 207.871C206.53 208.171 205.999 208.409 205.382 208.58L205.558 209.216ZM207.346 208.419C207.861 208.073 208.284 207.654 208.612 207.162L208.063 206.796C207.786 207.212 207.425 207.57 206.978 207.871L207.346 208.419ZM208.613 207.16C208.942 206.659 209.158 206.1 209.261 205.487L208.61 205.377C208.521 205.905 208.338 206.377 208.062 206.798L208.613 207.16ZM208.936 205.102H203.303V205.762H208.936V205.102ZM203.633 205.432V202.739H202.973V205.432H203.633ZM203.303 203.069H211.876V202.409H203.303V203.069ZM211.546 202.739V202.75H212.206V202.739H211.546ZM212.109 202.983L212.12 202.973L211.653 202.506L211.643 202.516L212.109 202.983ZM211.563 202.807C211.729 203.603 211.778 204.375 211.712 205.124L212.37 205.182C212.442 204.364 212.387 203.527 212.209 202.672L211.563 202.807ZM211.712 205.127C211.653 205.87 211.482 206.571 211.201 207.232L211.808 207.49C212.118 206.762 212.305 205.991 212.37 205.179L211.712 205.127ZM211.2 207.233C210.926 207.887 210.546 208.489 210.06 209.041L210.556 209.477C211.087 208.873 211.506 208.21 211.809 207.489L211.2 207.233ZM210.06 209.041C209.576 209.591 208.994 210.068 208.314 210.471L208.65 211.039C209.386 210.603 210.022 210.083 210.556 209.477L210.06 209.041ZM208.316 210.47C207.637 210.865 206.861 211.178 205.985 211.405L206.151 212.044C207.077 211.804 207.91 211.47 208.648 211.04L208.316 210.47ZM205.987 211.404C205.117 211.624 204.157 211.735 203.107 211.735V212.395C204.203 212.395 205.218 212.279 206.149 212.045L205.987 211.404ZM203.107 211.735C201.64 211.735 200.335 211.519 199.188 211.095L198.959 211.714C200.192 212.17 201.576 212.395 203.107 212.395V211.735ZM199.189 211.095C198.041 210.668 197.076 210.088 196.286 209.357L195.837 209.842C196.698 210.638 197.74 211.261 198.959 211.714L199.189 211.095ZM196.286 209.357C195.494 208.625 194.888 207.769 194.467 206.787L193.86 207.048C194.319 208.115 194.978 209.047 195.837 209.842L196.286 209.357ZM194.467 206.789C194.052 205.806 193.844 204.757 193.844 203.637H193.183C193.183 204.841 193.408 205.979 193.859 207.046L194.467 206.789ZM216.811 195.724V195.394H216.481V195.724H216.811ZM220.102 195.724H220.432V195.394H220.102V195.724ZM220.102 211.848V212.178H220.432V211.848H220.102ZM216.811 211.848H216.481V212.178H216.811V211.848ZM216.811 196.055H220.102V195.394H216.811V196.055ZM219.771 195.724V211.848H220.432V195.724H219.771ZM220.102 211.518H216.811V212.178H220.102V211.518ZM217.141 211.848V195.724H216.481V211.848H217.141ZM225.758 195.724V195.394H225.428V195.724H225.758ZM240.18 195.724H240.51V195.394H240.18V195.724ZM240.18 198.592V198.922H240.51V198.592H240.18ZM229.029 198.592V198.262H228.698V198.592H229.029ZM229.029 202.811H228.698V203.142H229.029V202.811ZM238.499 202.811H238.829V202.481H238.499V202.811ZM238.499 205.504V205.834H238.829V205.504H238.499ZM229.029 205.504V205.174H228.698V205.504H229.029ZM229.029 211.848V212.178H229.359V211.848H229.029ZM225.758 211.848H225.428V212.178H225.758V211.848ZM225.758 196.055H240.18V195.394H225.758V196.055ZM239.85 195.724V198.592H240.51V195.724H239.85ZM240.18 198.262H229.029V198.922H240.18V198.262ZM228.698 198.592V202.811H229.359V198.592H228.698ZM229.029 203.142H238.499V202.481H229.029V203.142ZM238.168 202.811V205.504H238.829V202.811H238.168ZM238.499 205.174H229.029V205.834H238.499V205.174ZM228.698 205.504V211.848H229.359V205.504H228.698ZM229.029 211.518H225.758V212.178H229.029V211.518ZM226.088 211.848V195.724H225.428V211.848H226.088ZM249.675 198.592H250.005V198.262H249.675V198.592ZM243.722 198.592H243.392V198.922H243.722V198.592ZM243.722 195.724V195.394H243.392V195.724H243.722ZM258.897 195.724H259.227V195.394H258.897V195.724ZM258.897 198.592V198.922H259.227V198.592H258.897ZM252.945 198.592V198.262H252.615V198.592H252.945ZM252.945 211.848V212.178H253.275V211.848H252.945ZM249.675 211.848H249.344V212.178H249.675V211.848ZM249.675 198.262H243.722V198.922H249.675V198.262ZM244.052 198.592V195.724H243.392V198.592H244.052ZM243.722 196.055H258.897V195.394H243.722V196.055ZM258.567 195.724V198.592H259.227V195.724H258.567ZM258.897 198.262H252.945V198.922H258.897V198.262ZM252.615 198.592V211.848H253.275V198.592H252.615ZM252.945 211.518H249.675V212.178H252.945V211.518ZM250.005 211.848V198.592H249.344V211.848H250.005ZM272.037 200.48L272.339 200.612L272.339 200.612L272.037 200.48ZM273.914 197.891L274.134 198.137L274.134 198.137L273.914 197.891ZM276.926 196.158L276.817 195.846L276.816 195.847L276.926 196.158ZM284.571 195.931L284.492 196.251L284.494 196.252L284.571 195.931ZM287.634 197.138L287.916 197.309L288.092 197.021L287.799 196.852L287.634 197.138ZM286.128 199.614L285.947 199.889L286.232 200.077L286.41 199.785L286.128 199.614ZM285.148 199.118L285.027 199.425L285.029 199.426L285.148 199.118ZM283.972 198.757L283.892 199.078L283.898 199.079L283.972 198.757ZM282.683 198.52L282.642 198.848L282.642 198.848L282.683 198.52ZM278.577 198.83L278.675 199.145L278.677 199.144L278.577 198.83ZM276.503 199.913L276.714 200.167L276.714 200.167L276.503 199.913ZM275.224 201.574L274.924 201.436L274.923 201.438L275.224 201.574ZM275.245 205.886L274.944 206.022L275.245 205.886ZM276.555 207.619L276.34 207.87L276.344 207.872L276.555 207.619ZM278.66 208.753L278.555 209.067L278.558 209.068L278.66 208.753ZM284.24 208.774L284.326 209.093L284.33 209.092L284.24 208.774ZM285.509 208.341L285.634 208.647L285.638 208.645L285.509 208.341ZM286.644 207.784L286.926 207.612L286.76 207.338L286.481 207.497L286.644 207.784ZM288.15 210.26L288.328 210.538L288.6 210.364L288.432 210.088L288.15 210.26ZM285.097 211.59L285.184 211.909L285.186 211.908L285.097 211.59ZM277.05 211.425L276.942 211.737L276.944 211.738L277.05 211.425ZM273.914 209.651L273.693 209.896L273.694 209.897L273.914 209.651ZM272.016 206.989L271.711 207.115L271.712 207.117L272.016 206.989ZM271.717 203.688C271.717 202.582 271.925 201.558 272.339 200.612L271.734 200.348C271.282 201.382 271.057 202.497 271.057 203.688H271.717ZM272.339 200.612C272.753 199.659 273.351 198.835 274.134 198.137L273.695 197.644C272.841 198.405 272.186 199.307 271.734 200.349L272.339 200.612ZM274.134 198.137C274.923 197.433 275.889 196.876 277.037 196.469L276.816 195.847C275.598 196.278 274.556 196.876 273.694 197.644L274.134 198.137ZM277.036 196.469C278.185 196.064 279.491 195.859 280.96 195.859V195.198C279.43 195.198 278.048 195.412 276.817 195.846L277.036 196.469ZM280.96 195.859C282.251 195.859 283.428 195.99 284.492 196.251L284.649 195.61C283.526 195.335 282.296 195.198 280.96 195.198V195.859ZM284.494 196.252C285.565 196.506 286.556 196.897 287.469 197.424L287.799 196.852C286.828 196.292 285.777 195.878 284.647 195.61L284.494 196.252ZM287.352 196.966L285.846 199.442L286.41 199.785L287.916 197.309L287.352 196.966ZM286.31 199.338C286.005 199.137 285.657 198.962 285.268 198.811L285.029 199.426C285.382 199.563 285.687 199.718 285.947 199.889L286.31 199.338ZM285.27 198.811C284.888 198.66 284.48 198.535 284.046 198.436L283.898 199.079C284.303 199.172 284.679 199.288 285.027 199.425L285.27 198.811ZM284.052 198.437C283.626 198.33 283.183 198.249 282.723 198.192L282.642 198.848C283.077 198.901 283.493 198.978 283.892 199.078L284.052 198.437ZM282.724 198.192C282.27 198.136 281.82 198.107 281.373 198.107V198.768C281.792 198.768 282.215 198.794 282.642 198.848L282.724 198.192ZM281.373 198.107C280.3 198.107 279.334 198.241 278.477 198.515L278.677 199.144C279.457 198.895 280.354 198.768 281.373 198.768V198.107ZM278.479 198.514C277.626 198.779 276.895 199.159 276.293 199.659L276.714 200.167C277.24 199.731 277.891 199.389 278.675 199.145L278.479 198.514ZM276.293 199.658C275.698 200.15 275.241 200.744 274.924 201.436L275.524 201.711C275.799 201.11 276.195 200.597 276.714 200.167L276.293 199.658ZM274.923 201.438C274.613 202.124 274.461 202.876 274.461 203.688H275.121C275.121 202.96 275.257 202.302 275.525 201.709L274.923 201.438ZM274.461 203.688C274.461 204.529 274.621 205.308 274.944 206.022L275.546 205.749C275.264 205.129 275.121 204.443 275.121 203.688H274.461ZM274.944 206.022C275.267 206.734 275.734 207.351 276.34 207.87L276.77 207.368C276.235 206.91 275.828 206.371 275.546 205.749L274.944 206.022ZM276.344 207.872C276.958 208.384 277.697 208.781 278.555 209.067L278.764 208.44C277.972 208.176 277.308 207.816 276.766 207.365L276.344 207.872ZM278.558 209.068C279.429 209.348 280.403 209.486 281.476 209.486V208.826C280.458 208.826 279.555 208.695 278.761 208.439L278.558 209.068ZM281.476 209.486C281.966 209.486 282.453 209.45 282.937 209.379L282.841 208.726C282.389 208.792 281.934 208.826 281.476 208.826V209.486ZM282.937 209.379C283.417 209.309 283.88 209.213 284.326 209.093L284.154 208.455C283.734 208.569 283.297 208.659 282.841 208.726L282.937 209.379ZM284.33 209.092C284.781 208.965 285.216 208.817 285.634 208.647L285.385 208.035C284.991 208.195 284.58 208.336 284.151 208.456L284.33 209.092ZM285.638 208.645C286.055 208.468 286.444 208.277 286.807 208.071L286.481 207.497C286.142 207.689 285.776 207.869 285.381 208.037L285.638 208.645ZM286.362 207.955L287.868 210.431L288.432 210.088L286.926 207.612L286.362 207.955ZM287.972 209.982C287.123 210.526 286.136 210.957 285.008 211.272L285.186 211.908C286.368 211.577 287.417 211.122 288.328 210.538L287.972 209.982ZM285.009 211.272C283.885 211.58 282.687 211.735 281.414 211.735V212.395C282.741 212.395 283.998 212.234 285.184 211.909L285.009 211.272ZM281.414 211.735C279.784 211.735 278.367 211.525 277.157 211.113L276.944 211.738C278.237 212.178 279.729 212.395 281.414 212.395V211.735ZM277.158 211.113C275.941 210.692 274.935 210.121 274.134 209.405L273.694 209.897C274.571 210.681 275.656 211.292 276.942 211.737L277.158 211.113ZM274.135 209.406C273.331 208.681 272.728 207.834 272.32 206.862L271.712 207.117C272.157 208.181 272.819 209.108 273.693 209.896L274.135 209.406ZM272.322 206.864C271.919 205.882 271.717 204.824 271.717 203.688H271.057C271.057 204.905 271.274 206.048 271.711 207.115L272.322 206.864ZM298.738 195.724V195.394H298.528L298.439 195.584L298.738 195.724ZM302.204 195.724L302.501 195.581L302.411 195.394H302.204V195.724ZM310.003 211.848V212.178H310.53L310.3 211.705L310.003 211.848ZM306.568 211.848L306.27 211.99L306.359 212.178H306.568V211.848ZM305.278 209.135L305.577 208.993L305.487 208.805H305.278V209.135ZM295.86 209.135V208.805H295.648L295.56 208.997L295.86 209.135ZM294.612 211.848V212.178H294.823L294.912 211.986L294.612 211.848ZM291.166 211.848L290.867 211.708L290.646 212.178H291.166V211.848ZM303.989 206.443V206.773H304.512L304.287 206.301L303.989 206.443ZM300.502 199.118L300.8 198.976L300.498 198.342L300.203 198.98L300.502 199.118ZM297.108 206.443L296.809 206.304L296.591 206.773H297.108V206.443ZM298.738 196.055H302.204V195.394H298.738V196.055ZM301.907 195.868L309.706 211.992L310.3 211.705L302.501 195.581L301.907 195.868ZM310.003 211.518H306.568V212.178H310.003V211.518ZM306.866 211.707L305.577 208.993L304.98 209.277L306.27 211.99L306.866 211.707ZM305.278 208.805H295.86V209.465H305.278V208.805ZM295.56 208.997L294.312 211.71L294.912 211.986L296.16 209.273L295.56 208.997ZM294.612 211.518H291.166V212.178H294.612V211.518ZM291.465 211.989L299.037 195.865L298.439 195.584L290.867 211.708L291.465 211.989ZM304.287 206.301L300.8 198.976L300.204 199.26L303.691 206.585L304.287 206.301ZM300.203 198.98L296.809 206.304L297.408 206.581L300.802 199.257L300.203 198.98ZM297.108 206.773H303.989V206.113H297.108V206.773ZM313.989 195.724V195.394H313.659V195.724H313.989ZM325.409 196.116L325.317 196.434L325.32 196.434L325.409 196.116ZM328.999 199.015L328.693 199.141L328.694 199.143L328.999 199.015ZM329.226 203.111L329.544 203.196L329.545 203.195L329.226 203.111ZM328.555 204.596L328.28 204.413L328.278 204.416L328.555 204.596ZM327.431 205.813L327.632 206.075L327.635 206.073L327.431 205.813ZM325.832 206.69L325.714 206.382L325.324 206.531L325.559 206.876L325.832 206.69ZM329.339 211.848V212.178H329.963L329.612 211.663L329.339 211.848ZM325.336 211.848L325.061 212.031L325.159 212.178H325.336V211.848ZM322.304 207.268L322.579 207.086L322.481 206.938H322.304V207.268ZM322.211 207.268L322.21 207.598H322.211V207.268ZM317.259 207.258L317.26 206.928L316.929 206.927V207.258H317.259ZM317.259 211.848V212.178H317.589V211.848H317.259ZM313.989 211.848H313.659V212.178H313.989V211.848ZM323.892 204.214L323.795 203.899L323.793 203.899L323.892 204.214ZM325.058 203.606L324.848 203.351L324.845 203.354L325.058 203.606ZM325.759 202.657L325.455 202.529L325.454 202.532L325.759 202.657ZM325.068 199.314L324.862 199.572L324.864 199.574L325.068 199.314ZM317.259 198.572V198.241H316.929V198.572H317.259ZM317.259 204.431H316.929V204.761H317.259V204.431ZM313.989 196.055H322.19V195.394H313.989V196.055ZM322.19 196.055C323.406 196.055 324.447 196.183 325.317 196.434L325.5 195.799C324.555 195.527 323.45 195.394 322.19 195.394V196.055ZM325.32 196.434C326.193 196.679 326.903 197.032 327.459 197.486L327.877 196.975C327.236 196.452 326.44 196.063 325.498 195.799L325.32 196.434ZM327.459 197.486C328.016 197.941 328.426 198.491 328.693 199.141L329.304 198.89C328.994 198.136 328.517 197.497 327.877 196.975L327.459 197.486ZM328.694 199.143C328.97 199.798 329.112 200.548 329.112 201.398H329.772C329.772 200.474 329.618 199.635 329.303 198.887L328.694 199.143ZM329.112 201.398C329.112 201.97 329.043 202.512 328.907 203.026L329.545 203.195C329.697 202.623 329.772 202.023 329.772 201.398H329.112ZM328.907 203.025C328.772 203.527 328.563 203.989 328.28 204.413L328.83 204.779C329.153 204.295 329.391 203.767 329.544 203.196L328.907 203.025ZM328.278 204.416C328.004 204.838 327.654 205.217 327.226 205.554L327.635 206.073C328.115 205.694 328.515 205.262 328.832 204.776L328.278 204.416ZM327.229 205.552C326.804 205.881 326.3 206.158 325.714 206.382L325.949 206.999C326.587 206.755 327.15 206.448 327.632 206.075L327.229 205.552ZM325.559 206.876L329.066 212.034L329.612 211.663L326.105 206.505L325.559 206.876ZM329.339 211.518H325.336V212.178H329.339V211.518ZM325.612 211.666L322.579 207.086L322.028 207.45L325.061 212.031L325.612 211.666ZM322.304 206.938H322.211V207.598H322.304V206.938ZM322.211 206.938L317.26 206.928L317.258 207.588L322.21 207.598L322.211 206.938ZM316.929 207.258V211.848H317.589V207.258H316.929ZM317.259 211.518H313.989V212.178H317.259V211.518ZM314.319 211.848V195.724H313.659V211.848H314.319ZM322.273 204.761C322.916 204.761 323.491 204.686 323.991 204.529L323.793 203.899C323.372 204.031 322.867 204.101 322.273 204.101V204.761ZM323.99 204.53C324.491 204.375 324.921 204.153 325.271 203.858L324.845 203.354C324.576 203.581 324.229 203.765 323.795 203.899L323.99 204.53ZM325.268 203.86C325.626 203.565 325.893 203.204 326.065 202.781L325.454 202.532C325.323 202.852 325.123 203.124 324.848 203.351L325.268 203.86ZM326.064 202.784C326.241 202.361 326.327 201.897 326.327 201.398H325.667C325.667 201.821 325.594 202.196 325.455 202.529L326.064 202.784ZM326.327 201.398C326.327 200.413 325.983 199.616 325.273 199.055L324.864 199.574C325.391 199.99 325.667 200.582 325.667 201.398H326.327ZM325.274 199.057C324.572 198.494 323.552 198.241 322.273 198.241V198.902C323.483 198.902 324.327 199.144 324.862 199.572L325.274 199.057ZM322.273 198.241H317.259V198.902H322.273V198.241ZM316.929 198.572V204.431H317.589V198.572H316.929ZM317.259 204.761H322.273V204.101H317.259V204.761ZM334.8 195.724V195.394H334.47V195.724H334.8ZM348.365 197.88L348.154 198.134L348.156 198.136L348.365 197.88ZM350.233 200.398L349.927 200.523L349.928 200.525L350.233 200.398ZM350.243 206.969L350.548 207.094L350.549 207.093L350.243 206.969ZM348.386 209.548L348.602 209.797L348.604 209.796L348.386 209.548ZM345.229 211.25L345.33 211.564L345.331 211.564L345.229 211.25ZM340.732 211.859L340.731 212.189H340.732V211.859ZM334.8 211.848H334.47V212.178L334.799 212.178L334.8 211.848ZM344.084 208.65L344.19 208.963L344.192 208.962L344.084 208.65ZM345.921 207.577L345.696 207.336L345.694 207.337L345.921 207.577ZM347.035 201.584L346.727 201.703L346.727 201.704L347.035 201.584ZM345.921 199.964L345.698 200.208L345.701 200.211L345.921 199.964ZM338.07 198.572V198.241H337.74V198.572H338.07ZM338.07 209.022H337.74V209.352H338.07V209.022ZM334.8 196.055H340.711V195.394H334.8V196.055ZM340.711 196.055C342.415 196.055 343.881 196.238 345.116 196.598L345.301 195.965C343.991 195.582 342.46 195.394 340.711 195.394V196.055ZM345.116 196.598C346.354 196.96 347.363 197.474 348.154 198.134L348.577 197.627C347.703 196.898 346.608 196.346 345.301 195.965L345.116 196.598ZM348.156 198.136C348.953 198.789 349.542 199.584 349.927 200.523L350.538 200.272C350.111 199.231 349.455 198.347 348.575 197.625L348.156 198.136ZM349.928 200.525C350.321 201.463 350.521 202.525 350.521 203.719H351.182C351.182 202.451 350.969 201.299 350.537 200.27L349.928 200.525ZM350.521 203.719C350.521 204.849 350.325 205.89 349.937 206.844L350.549 207.093C350.972 206.053 351.182 204.927 351.182 203.719H350.521ZM349.937 206.844C349.552 207.785 348.964 208.603 348.168 209.299L348.604 209.796C349.473 209.035 350.123 208.133 350.548 207.094L349.937 206.844ZM348.17 209.298C347.377 209.986 346.366 210.534 345.128 210.936L345.331 211.564C346.637 211.141 347.73 210.554 348.602 209.797L348.17 209.298ZM345.129 210.935C343.897 211.328 342.433 211.528 340.732 211.528V212.189C342.482 212.189 344.017 211.983 345.33 211.564L345.129 210.935ZM340.732 211.528L334.8 211.518L334.799 212.178L340.731 212.189L340.732 211.528ZM335.13 211.848V195.724H334.47V211.848H335.13ZM341.516 209.352C342.519 209.352 343.412 209.225 344.19 208.963L343.979 208.337C343.284 208.571 342.465 208.692 341.516 208.692V209.352ZM344.192 208.962C344.965 208.695 345.62 208.315 346.147 207.818L345.694 207.337C345.245 207.761 344.675 208.097 343.976 208.338L344.192 208.962ZM346.145 207.819C346.679 207.323 347.078 206.722 347.343 206.023L346.726 205.789C346.496 206.397 346.152 206.911 345.696 207.336L346.145 207.819ZM347.343 206.023C347.607 205.327 347.736 204.558 347.736 203.719H347.076C347.076 204.49 346.957 205.179 346.726 205.789L347.343 206.023ZM347.736 203.719C347.736 202.894 347.607 202.14 347.342 201.464L346.727 201.704C346.958 202.293 347.076 202.963 347.076 203.719H347.736ZM347.342 201.465C347.077 200.778 346.676 200.194 346.14 199.718L345.701 200.211C346.156 200.615 346.497 201.111 346.727 201.703L347.342 201.465ZM346.143 199.721C345.615 199.237 344.96 198.872 344.187 198.619L343.982 199.246C344.68 199.475 345.249 199.797 345.698 200.208L346.143 199.721ZM344.187 198.619C343.411 198.365 342.518 198.241 341.516 198.241V198.902C342.466 198.902 343.286 199.019 343.982 199.246L344.187 198.619ZM341.516 198.241H338.07V198.902H341.516V198.241ZM337.74 198.572V209.022H338.4V198.572H337.74ZM338.07 209.352H341.516V208.692H338.07V209.352Z" fill="white"/>
<path d="M134.218 87.7544L142.707 73.544L151.192 87.7543L151.32 87.9688H151.57H171.509L161.552 104.638L156.726 112.716H142.338L140.997 110.47L140.997 110.469L130.82 93.439L134.218 87.7545L134.218 87.7544Z" fill="url(#paint5_linear_610_254)"/>
<path d="M134.218 87.7544L142.707 73.544L151.192 87.7543L151.32 87.9688H151.57H171.509L161.552 104.638L156.726 112.716H142.338L140.997 110.47L140.997 110.469L130.82 93.439L134.218 87.7545L134.218 87.7544Z" stroke="black" stroke-width="0.880297"/>
<path d="M134.218 87.7544L142.707 73.544L151.192 87.7543L151.32 87.9688H151.57H171.509L161.552 104.638L156.726 112.716H142.338L140.997 110.47L140.997 110.469L130.82 93.439L134.218 87.7545L134.218 87.7544Z" stroke="url(#paint6_linear_610_254)" stroke-width="0.880297"/>
<path d="M257.132 104.579L247.21 87.9688H267.074H267.324L267.452 87.7543L275.977 73.4845L284.502 87.7543L284.502 87.7544L287.861 93.3737L277.687 110.402L277.687 110.402L276.303 112.716H261.993L257.132 104.579L257.132 104.579Z" fill="url(#paint7_linear_610_254)"/>
<path d="M257.132 104.579L247.21 87.9688H267.074H267.324L267.452 87.7543L275.977 73.4845L284.502 87.7543L284.502 87.7544L287.861 93.3737L277.687 110.402L277.687 110.402L276.303 112.716H261.993L257.132 104.579L257.132 104.579Z" stroke="black" stroke-width="0.880297"/>
<path d="M257.132 104.579L247.21 87.9688H267.074H267.324L267.452 87.7543L275.977 73.4845L284.502 87.7543L284.502 87.7544L287.861 93.3737L277.687 110.402L277.687 110.402L276.303 112.716H261.993L257.132 104.579L257.132 104.579Z" stroke="url(#paint8_linear_610_254)" stroke-width="0.880297"/>
<path d="M216.04 151.859H228.132L222.096 161.961L222.096 161.961L213.349 176.605H205.295L196.548 161.961L196.548 161.961L190.114 151.193L190.114 151.193L167.323 113.042L180.342 91.2473L180.342 91.2471L182.298 87.9685H235.679L237.968 91.8049L237.968 91.8051L250.856 113.381L250.856 113.382L250.987 113.599L238.346 134.756L225.705 113.599L225.836 113.382L226.236 112.715H225.458H193.185H192.41L192.807 113.381L208.942 140.393L215.662 151.644L215.79 151.859H216.04Z" fill="url(#paint9_linear_610_254)"/>
<path d="M216.04 151.859H228.132L222.096 161.961L222.096 161.961L213.349 176.605H205.295L196.548 161.961L196.548 161.961L190.114 151.193L190.114 151.193L167.323 113.042L180.342 91.2473L180.342 91.2471L182.298 87.9685H235.679L237.968 91.8049L237.968 91.8051L250.856 113.381L250.856 113.382L250.987 113.599L238.346 134.756L225.705 113.599L225.836 113.382L226.236 112.715H225.458H193.185H192.41L192.807 113.381L208.942 140.393L215.662 151.644L215.79 151.859H216.04Z" stroke="black" stroke-width="0.880297"/>
<path d="M216.04 151.859H228.132L222.096 161.961L222.096 161.961L213.349 176.605H205.295L196.548 161.961L196.548 161.961L190.114 151.193L190.114 151.193L167.323 113.042L180.342 91.2473L180.342 91.2471L182.298 87.9685H235.679L237.968 91.8049L237.968 91.8051L250.856 113.381L250.856 113.382L250.987 113.599L238.346 134.756L225.705 113.599L225.836 113.382L226.236 112.715H225.458H193.185H192.41L192.807 113.381L208.942 140.393L215.662 151.644L215.79 151.859H216.04Z" stroke="url(#paint10_linear_610_254)" stroke-width="0.880297"/>
</g>
<rect x="1.19015" y="0.440148" width="414.62" height="276.12" rx="15.3884" stroke="url(#paint11_linear_610_254)" stroke-width="0.880297"/>
<defs>
<linearGradient id="paint0_linear_610_254" x1="341.205" y1="23.3189" x2="40.377" y2="256.893" gradientUnits="userSpaceOnUse">
<stop stop-color="#FCA977"/>
<stop offset="0.265" stop-color="#EC8749"/>
<stop offset="0.805" stop-color="#EA7832"/>
<stop offset="1" stop-color="#DA661F"/>
</linearGradient>
<linearGradient id="paint1_linear_610_254" x1="-11.3265" y1="-35.2955" x2="-11.3265" y2="46.3208" gradientUnits="userSpaceOnUse">
<stop stop-color="#E8752F"/>
<stop offset="1" stop-color="#E8752F" stop-opacity="0"/>
</linearGradient>
<linearGradient id="paint2_linear_610_254" x1="430.03" y1="-35.4843" x2="430.03" y2="46.2516" gradientUnits="userSpaceOnUse">
<stop stop-color="#E8752F"/>
<stop offset="1" stop-color="#E8752F" stop-opacity="0"/>
</linearGradient>
<linearGradient id="paint3_linear_610_254" x1="208.608" y1="50.3409" x2="208.608" y2="230.87" gradientUnits="userSpaceOnUse">
<stop stop-color="#E8752F"/>
<stop offset="1" stop-color="#E8752F" stop-opacity="0"/>
</linearGradient>
<linearGradient id="paint4_linear_610_254" x1="346.39" y1="194.848" x2="172.761" y2="330.07" gradientUnits="userSpaceOnUse">
<stop stop-color="#F7D5B7"/>
<stop offset="0.112467" stop-color="#F3E0CF"/>
<stop offset="0.325462" stop-color="white"/>
<stop offset="0.491889" stop-color="#E3BD99"/>
<stop offset="0.539696" stop-color="white"/>
<stop offset="0.784609" stop-color="white"/>
<stop offset="0.91" stop-color="#EAC4A2"/>
</linearGradient>
<linearGradient id="paint5_linear_610_254" x1="168.988" y1="-2.43061" x2="94.4208" y2="46.5839" gradientUnits="userSpaceOnUse">
<stop stop-color="#F7D5B7"/>
<stop offset="0.112467" stop-color="#F3E0CF"/>
<stop offset="0.325462" stop-color="white"/>
<stop offset="0.491889" stop-color="#E3BD99"/>
<stop offset="0.539696" stop-color="white"/>
<stop offset="0.784609" stop-color="white"/>
<stop offset="0.91" stop-color="#EAC4A2"/>
</linearGradient>
<linearGradient id="paint6_linear_610_254" x1="151.296" y1="72.6856" x2="151.296" y2="113.156" gradientUnits="userSpaceOnUse">
<stop stop-color="white"/>
<stop offset="0.47" stop-color="#F8C99E"/>
<stop offset="1" stop-color="white"/>
</linearGradient>
<linearGradient id="paint7_linear_610_254" x1="285.078" y1="-2.60013" x2="210.473" y2="46.3211" gradientUnits="userSpaceOnUse">
<stop stop-color="#F7D5B7"/>
<stop offset="0.112467" stop-color="#F3E0CF"/>
<stop offset="0.325462" stop-color="white"/>
<stop offset="0.491889" stop-color="#E3BD99"/>
<stop offset="0.539696" stop-color="white"/>
<stop offset="0.784609" stop-color="white"/>
<stop offset="0.91" stop-color="#EAC4A2"/>
</linearGradient>
<linearGradient id="paint8_linear_610_254" x1="267.403" y1="72.6262" x2="267.403" y2="113.156" gradientUnits="userSpaceOnUse">
<stop stop-color="white"/>
<stop offset="0.47" stop-color="#F8C99E"/>
<stop offset="1" stop-color="white"/>
</linearGradient>
<linearGradient id="paint9_linear_610_254" x1="244.848" y1="-78.6232" x2="86.3727" y2="16.3891" gradientUnits="userSpaceOnUse">
<stop stop-color="#F7D5B7"/>
<stop offset="0.112467" stop-color="#F3E0CF"/>
<stop offset="0.325462" stop-color="white"/>
<stop offset="0.491889" stop-color="#E3BD99"/>
<stop offset="0.539696" stop-color="white"/>
<stop offset="0.784609" stop-color="white"/>
<stop offset="0.91" stop-color="#EAC4A2"/>
</linearGradient>
<linearGradient id="paint10_linear_610_254" x1="209.155" y1="87.5284" x2="209.155" y2="177.046" gradientUnits="userSpaceOnUse">
<stop stop-color="white"/>
<stop offset="0.47" stop-color="#F8C99E"/>
<stop offset="1" stop-color="white"/>
</linearGradient>
<linearGradient id="paint11_linear_610_254" x1="208.5" y1="0" x2="208.5" y2="277" gradientUnits="userSpaceOnUse">
<stop stop-color="#F39257"/>
<stop offset="0.435" stop-color="#FFD0B4"/>
<stop offset="1" stop-color="#C86E39"/>
</linearGradient>
<clipPath id="clip0_610_254">
<rect x="0.75" width="415.5" height="277" rx="15.8286" fill="white"/>
</clipPath>
</defs>
</svg>
